<svg width="232" height="237" viewBox="0 0 232 237" fill="none" xmlns="http://www.w3.org/2000/svg">
<path d="M125.105 74.4395L125.284 75.7598L126.019 74.6475L165.327 15.0908L143.274 82.957L142.863 84.2246L144.007 83.541L205.263 46.9395L155.948 98.5156L155.027 99.4785L156.354 99.3594L227.427 92.959L160.616 118.032L159.369 118.5L160.616 118.968L227.427 144.04L156.354 137.641L155.027 137.521L155.948 138.484L205.263 190.06L144.007 153.459L142.863 152.775L143.274 154.043L165.327 221.908L126.019 162.353L125.284 161.24L125.105 162.562L115.529 233.276L105.953 162.562L105.774 161.24L105.04 162.353L65.7305 221.908L87.7842 154.043L88.1953 152.775L87.0518 153.459L25.7949 190.06L75.1104 138.484L76.0312 137.521L74.7041 137.641L3.63086 144.04L70.4424 118.968L71.6895 118.5L70.4424 118.032L3.63086 92.959L74.7041 99.3594L76.0312 99.4785L75.1104 98.5156L25.7949 46.9395L87.0518 83.541L88.1953 84.2246L87.7842 82.957L65.7305 15.0908L105.04 74.6475L105.774 75.7598L105.953 74.4395L115.529 3.72266L125.105 74.4395Z" fill="#FDF9F3" stroke="black"/>
</svg>
