<svg width="62" height="64" viewBox="0 0 62 64" fill="none" xmlns="http://www.w3.org/2000/svg">
<path d="M2.73114 12.9926C1.51837 13.0867 2.23912 11.0491 2.41218 10.5485C2.88428 9.21237 3.54072 7.79271 4.11494 6.51031C4.44912 5.70334 5.11153 4.9587 5.93641 5.77362C6.54711 6.38563 7.40183 7.487 7.93031 8.23628C8.34341 8.80453 9.36522 10.2746 9.25914 10.8004C9.15636 11.358 8.63518 11.6054 8.02913 11.3468C7.58884 11.1353 7.27454 10.5889 7.07561 10.2235C6.40855 9.07044 5.97091 7.9578 5.28859 6.96716C5.24682 6.87499 5.08436 6.85975 5.03397 6.99369C4.53534 8.07517 4.31455 9.35293 3.93129 10.6154C3.78675 11.0809 3.39952 12.923 2.73114 12.9926ZM23.1487 5.75482C25.3932 5.67981 27.2378 7.70317 26.9255 10.029C26.6572 12.0363 24.9151 13.2191 22.9326 13.1439C21.1099 13.0748 20.0121 11.6242 19.7825 10.0784C19.7529 10.0132 19.6902 9.9788 19.6262 9.97637C18.3447 9.99182 16.8074 9.99757 15.5911 9.98347C15.5259 10.013 15.4607 10.0426 15.4903 10.1077C15.4956 10.8124 15.6306 14.8525 15.7027 16.3283C15.7117 16.937 15.7 18.0894 15.0985 17.9065C14.5597 17.758 14.4573 17.0816 14.4483 16.4728C14.3454 14.9638 14.1866 12.396 14.1477 10.8894C14.0318 8.03499 13.7414 5.5582 13.666 2.48114C13.6546 1.93631 13.7448 0.40263 14.6847 0.950639C15.1546 1.22464 15.2879 1.9342 15.3016 2.41507C15.3779 4.62755 15.3027 6.61012 15.3813 8.75864C15.3789 8.8226 15.4404 8.88898 15.5044 8.8914C17.1684 8.92248 18.5163 8.8455 19.6735 8.72927C19.7375 8.73169 19.8038 8.67016 19.8063 8.60621C20.066 6.82277 21.3863 5.78406 23.1487 5.75482ZM23.1531 11.5511C24.6512 11.736 25.6643 11.198 25.7237 9.63117C25.7722 8.35209 24.7432 6.77597 23.1666 6.97237C21.8802 7.11573 21.3015 8.02245 21.2554 9.23757C21.2093 10.4527 21.8149 11.3723 23.1531 11.5511ZM32.7466 16.1267C31.6028 15.7088 30.9036 14.8194 30.9885 13.1511C31.0608 11.5123 32.2696 8.75768 33.4519 7.45275C34.3114 6.49721 35.3286 6.72207 36.0014 6.93922C37.7546 7.47774 39.752 8.25947 42.2287 9.14109C44.4278 9.93923 46.8374 10.8966 48.6331 11.6619C49.2387 11.9549 49.4496 12.3578 49.1775 12.8332C48.9849 13.2033 48.3967 13.1961 47.972 13.0499C45.7728 12.2517 44.8892 11.6316 40.7177 9.99289C37.4588 8.74308 36.5168 8.34159 35.0874 7.94108C34.751 7.83251 34.4533 8.12303 34.3191 8.27457C33.879 8.81748 33.4148 9.90668 33.256 10.3608C33.2184 10.4491 33.3067 10.4867 33.3487 10.4699C34.0204 10.1996 34.7728 10.3115 35.2607 10.5543C36.5309 11.1652 37.0921 12.3784 36.7674 13.8749C36.3891 15.9051 34.5674 16.8332 32.7466 16.1267ZM32.6625 11.9167C32.3358 12.4383 32.0014 13.3046 32.3769 14.056C32.8831 15.0718 34.1103 15.2122 34.8023 14.5679C35.4273 13.9994 35.7448 13.0912 35.4238 12.2935C35.2337 11.7602 34.699 11.2193 33.8419 11.2714C33.4848 11.2931 33.0143 11.3361 32.6625 11.9167ZM47.5879 24.4965C47.1275 23.3705 49.2879 23.434 49.8175 23.4457C51.234 23.4868 52.7863 23.6779 54.1829 23.8327C55.0534 23.9042 55.9648 24.3073 55.4411 25.3418C55.045 26.1104 54.2576 27.2608 53.7057 27.993C53.2909 28.5601 52.2035 29.9823 51.6705 30.042C51.1081 30.1146 50.7133 29.694 50.7743 29.0379C50.8411 28.554 51.2652 28.0877 51.5523 27.7867C52.4463 26.7991 53.3719 26.0423 54.1066 25.0898C54.1816 25.0219 54.1465 24.8625 54.0035 24.8555C52.8214 24.7113 51.5373 24.8916 50.2181 24.9126C49.7307 24.9173 47.8585 25.1116 47.5879 24.4965ZM53.9855 46.2388C53.5553 48.4429 51.1698 49.7869 48.9733 48.961C47.0773 48.2495 46.3151 46.2866 46.8329 44.3714C47.309 42.6106 48.9688 41.866 50.5268 41.9888C50.5969 41.9746 50.6445 41.9212 50.6612 41.8594C50.9335 40.6071 51.2726 39.1076 51.5591 37.9254C51.5449 37.8553 51.5307 37.7851 51.4606 37.7993C50.7726 37.6465 46.8052 36.8722 45.3508 36.6116C44.7555 36.4838 43.6351 36.214 43.9482 35.6689C44.2138 35.1771 44.8959 35.2289 45.4912 35.3567C46.9848 35.5948 49.5229 36.0158 50.9998 36.3157C53.8076 36.8427 56.2864 37.1151 59.302 37.7315C59.8355 37.8426 61.3099 38.2744 60.5651 39.0675C60.1927 39.464 59.4714 39.4347 58.9997 39.3404C56.8264 38.9186 54.9112 38.4008 52.7997 37.9956C52.7379 37.9789 52.6595 38.024 52.6428 38.0858C52.2394 39.7005 52.0122 41.0313 51.866 42.1851C51.8493 42.2469 51.8943 42.3254 51.9561 42.3421C53.6359 42.9952 54.3521 44.5147 53.9855 46.2388ZM48.3357 44.9434C47.8196 46.3619 48.1168 47.4698 49.6304 47.879C50.8661 48.2131 52.6328 47.5637 52.7949 45.9832C52.9436 44.6975 52.1898 43.9301 51.0159 43.6128C49.842 43.2954 48.8101 43.6794 48.3357 44.9434ZM46.9246 55.1214C47.3278 54.6152 48.4639 55.2714 49.1012 55.6394C49.7663 56.0235 56.6003 59.6748 56.9051 59.8509C57.2099 60.0269 58.5837 60.7834 58.9034 61.1897C59.2347 61.6398 59.0052 62.3571 58.4252 62.4656C57.714 62.6092 56.483 61.8613 55.8734 61.5092C55.2915 61.1731 48.8521 57.1585 48.3256 56.8544C47.7991 56.5503 46.3102 55.8013 46.9246 55.1214ZM41.5487 52.0166C42.0128 51.213 42.8859 51.2369 43.4753 51.6881C43.9975 52.0636 44.2519 52.8388 43.8838 53.4761C43.4517 54.2243 42.6137 54.3316 42.0755 53.9838C41.4148 53.5283 41.1486 52.7094 41.5487 52.0166Z" fill="white"/>
</svg>
