<svg width="76" height="74" viewBox="0 0 76 74" fill="none" xmlns="http://www.w3.org/2000/svg">
<g filter="url(#filter0_d_226_469)">
<path d="M21.5853 62.6622C21.7901 63.8612 19.695 63.33 19.1807 63.2035C17.8069 62.8558 16.3331 62.332 15.0036 61.8776C14.1694 61.6187 13.3672 61.0273 14.1032 60.1313C14.6567 59.4671 15.6752 58.5151 16.373 57.9203C16.901 57.4569 18.2713 56.3048 18.8047 56.3623C19.3694 56.4136 19.6634 56.9099 19.4614 57.5371C19.291 57.9949 18.7757 58.3579 18.4301 58.5894C17.343 59.3593 16.275 59.897 15.351 60.6671C15.2631 60.7171 15.2628 60.8803 15.4008 60.9182C16.5234 61.3157 17.816 61.4186 19.1083 61.6847C19.585 61.786 21.4548 62.003 21.5853 62.6622ZM12.5086 42.993C12.2284 40.7648 14.0744 38.7427 16.4191 38.8408C18.4425 38.9241 19.7798 40.5506 19.8865 42.5317C19.9845 44.3531 18.6405 45.5791 17.1222 45.9492C17.06 45.9846 17.0315 46.0503 17.0349 46.1142C17.1677 47.3889 17.3141 48.9192 17.4114 50.1317C17.4468 50.1939 17.4822 50.2561 17.5444 50.2207C18.2457 50.1509 22.2564 49.6466 23.7194 49.4397C24.3248 49.375 25.4734 49.2812 25.3463 49.8969C25.2477 50.447 24.5836 50.6109 23.9782 50.6755C22.4849 50.9162 19.9424 51.3094 18.4457 51.4861C15.6139 51.8629 13.1741 52.3788 10.1169 52.7356C9.57538 52.7968 8.03988 52.8474 8.49954 51.8613C8.72936 51.3682 9.42374 51.1706 9.90133 51.1129C12.0975 50.8344 14.0787 50.7278 16.211 50.4527C16.2749 50.4493 16.3353 50.382 16.3319 50.318C16.2105 48.6582 16.0104 47.323 15.7887 46.1813C15.7853 46.1174 15.718 46.0569 15.6541 46.0603C13.8543 45.9649 12.6991 44.7453 12.5086 42.993ZM18.2802 42.458C18.3272 40.9492 17.6987 39.9896 16.1329 40.0739C14.8548 40.1427 13.3795 41.3117 13.7194 42.8637C13.9799 44.1315 14.9358 44.6249 16.1501 44.5595C17.3643 44.4941 18.2246 43.8069 18.2802 42.458ZM21.9582 32.4858C21.6468 33.663 20.8252 34.4408 19.1561 34.509C17.5175 34.587 14.6638 33.6355 13.2561 32.5776C12.2259 31.8093 12.3567 30.7756 12.5113 30.0859C12.8871 28.2907 13.4827 26.2301 14.1338 23.6831C14.7273 21.4201 15.46 18.9331 16.0577 17.0748C16.294 16.4449 16.6759 16.198 17.1742 16.4255C17.5604 16.5833 17.6071 17.1698 17.5004 17.6061C16.9069 19.8691 16.3703 20.8057 15.1204 25.1097C14.1742 28.4694 13.8606 29.4442 13.5927 30.9043C13.5153 31.2492 13.8319 31.5191 13.9951 31.6388C14.576 32.0273 15.7031 32.3899 16.1699 32.5064C16.2613 32.5358 16.2907 32.4444 16.27 32.4042C15.9394 31.76 15.982 31.0005 16.179 30.4925C16.6711 29.1717 17.8278 28.5017 19.3477 28.6881C21.4041 28.8789 22.495 30.608 21.9582 32.4858ZM17.7736 32.955C18.323 33.2326 19.2162 33.4863 19.93 33.0436C20.8952 32.4465 20.9227 31.2115 20.2178 30.5814C19.5944 30.0112 18.661 29.7781 17.896 30.1708C17.3824 30.4089 16.8927 30.9909 17.023 31.8396C17.0774 32.1932 17.1632 32.6578 17.7736 32.955ZM28.9341 16.9406C27.855 17.5021 27.7204 15.3449 27.6836 14.8165C27.5949 13.4022 27.643 11.8389 27.6693 10.4341C27.6608 9.56067 27.9788 8.61612 29.0569 9.04299C29.8584 9.36703 31.0762 10.0458 31.8558 10.5283C32.4584 10.8895 33.9742 11.8421 34.0825 12.3674C34.2063 12.9208 33.8236 13.3525 33.1646 13.3518C32.6767 13.3296 32.1736 12.9499 31.8475 12.6916C30.7822 11.8917 29.9438 11.0393 28.9281 10.3949C28.8536 10.3264 28.6981 10.376 28.7042 10.519C28.6688 11.7094 28.966 12.9716 29.1076 14.2833C29.1569 14.7682 29.5218 16.6148 28.9341 16.9406ZM49.9993 8.57927C52.2336 8.80583 53.7903 11.0582 53.169 13.3212C52.6341 15.2744 50.7492 16.213 48.7946 15.8727C46.9976 15.5599 46.1042 13.9752 46.0839 12.4125C46.0633 12.344 46.0058 12.3015 45.9427 12.2905C44.6707 12.134 43.1465 11.9336 41.943 11.7566C41.8745 11.7771 41.8059 11.7977 41.8265 11.8662C41.7373 12.5653 41.3295 16.5869 41.2031 18.0591C41.1303 18.6636 40.9643 19.804 40.3927 19.5421C39.8788 19.3227 39.8679 18.6387 39.9407 18.0342C40.041 16.525 40.2279 13.9591 40.3912 12.4609C40.659 9.61667 40.7033 7.12332 41.041 4.06391C41.1028 3.52248 41.3978 2.01473 42.2557 2.6838C42.6847 3.01833 42.7216 3.73934 42.6708 4.21771C42.4497 6.42044 42.1095 8.37504 41.8994 10.5147C41.8884 10.5778 41.9405 10.6518 42.0035 10.6628C43.6483 10.9166 44.9944 11.021 46.1568 11.061C46.2198 11.072 46.2938 11.0199 46.3048 10.9568C46.8013 9.22433 48.249 8.37199 49.9993 8.57927ZM49.2266 14.3239C50.6864 14.7079 51.7625 14.3106 52.0314 12.7658C52.2509 11.5048 51.4425 9.80496 49.8538 9.78823C48.5599 9.75785 47.8648 10.5788 47.6562 11.7768C47.4477 12.9748 47.9245 13.9673 49.2266 14.3239ZM59.4911 14.7973C58.9501 14.4421 59.4995 13.2507 59.8077 12.5823C60.1293 11.8849 63.1395 4.74532 63.2869 4.42566C63.4343 4.10601 64.0619 2.6687 64.4372 2.31321C64.855 1.94206 65.5904 2.10496 65.7515 2.67258C65.9596 3.36759 65.3276 4.66186 65.0328 5.30117C64.7514 5.91141 61.3431 12.6913 61.0886 13.2434C60.834 13.7955 60.2243 15.3468 59.4911 14.7973ZM56.8915 20.4348C56.0488 20.0462 55.9926 19.1746 56.388 18.5464C56.7141 17.992 57.4627 17.6677 58.1311 17.9759C58.9157 18.3377 59.0992 19.1623 58.8022 19.7301C58.4091 20.4298 57.618 20.7698 56.8915 20.4348Z" fill="white"/>
</g>
<defs>
<filter id="filter0_d_226_469" x="0" y="0" width="75.5195" height="73.7876" filterUnits="userSpaceOnUse" color-interpolation-filters="sRGB">
<feFlood flood-opacity="0" result="BackgroundImageFix"/>
<feColorMatrix in="SourceAlpha" type="matrix" values="0 0 0 0 0 0 0 0 0 0 0 0 0 0 0 0 0 0 127 0" result="hardAlpha"/>
<feOffset dy="4"/>
<feGaussianBlur stdDeviation="2"/>
<feComposite in2="hardAlpha" operator="out"/>
<feColorMatrix type="matrix" values="0 0 0 0 0 0 0 0 0 0 0 0 0 0 0 0 0 0 0.25 0"/>
<feBlend mode="normal" in2="BackgroundImageFix" result="effect1_dropShadow_226_469"/>
<feBlend mode="normal" in="SourceGraphic" in2="effect1_dropShadow_226_469" result="shape"/>
</filter>
</defs>
</svg>
