<svg width="119" height="103" viewBox="0 0 119 103" fill="none" xmlns="http://www.w3.org/2000/svg">
<path d="M61.9102 0.875488C62.0418 1.79703 62.2413 4.57562 62.342 8.92202C62.3893 10.9643 62.1136 12.676 62.0119 14.3476C61.9102 16.0191 61.9102 17.5989 62.0089 19.4659C62.2193 23.4448 62.6402 26.0703 62.9055 28.2166C63.1129 29.8946 63.1708 32.7983 63.107 35.5739C63.0431 38.3495 62.7798 40.9167 62.6442 43.7202C62.5086 46.5237 62.5086 49.4858 62.6073 51.5054C62.7548 54.5234 63.1728 56.5171 63.4042 58.6384C63.5284 59.7776 63.833 61.023 63.9687 64.1028C64.1043 67.1826 64.1043 72.0536 64.236 75.9123C64.3676 79.771 64.6309 82.4698 64.8324 84.0905C65.0338 85.7112 65.1655 86.172 65.2991 88.022C65.6653 93.0912 65.7659 96.8156 65.9643 97.7102C66.097 98.2099 66.2945 98.8023 66.462 99.4366C66.6296 100.071 66.7612 100.729 67.0963 101.607" stroke="#FDF9F3" stroke-width="1.75104" stroke-linecap="round"/>
<path d="M41.9668 64.9051C42.0326 64.7734 42.0984 64.6418 42.5602 64.0144C43.022 63.3871 43.8777 62.2681 49.749 57.2814C55.6204 52.2947 66.4814 43.4742 73.7221 37.3506C80.9628 31.2269 84.254 28.0673 87.645 24.812" stroke="#FDF9F3" stroke-width="1.75104" stroke-linecap="round"/>
<path d="M19.0273 26.207C20.0885 26.7376 21.018 27.334 24.2494 29.1821C27.0424 30.7795 32.3518 33.3998 39.1786 37.4889C46.0054 41.578 54.2334 46.9756 58.8012 49.8879C63.3691 52.8001 64.0273 53.0634 66.2424 54.2193C68.4575 55.3752 72.2095 57.4158 74.3069 58.5328C76.7155 59.8156 78.6523 60.6412 81.6712 62.1332C83.1104 62.9012 84.3611 63.691 85.8282 64.4271C87.2952 65.1631 88.9409 65.8214 90.8358 66.699" stroke="#FDF9F3" stroke-width="1.75104" stroke-linecap="round"/>
<path d="M0.875 46.1539C0.940824 46.1539 1.00665 46.1539 2.19249 46.3185C3.37832 46.483 5.68218 46.8122 16.8743 47.0146C28.0665 47.2171 48.0771 47.2829 61.3477 47.0864C74.6183 46.8899 80.5425 46.4292 83.8906 46.126C87.2386 45.8228 87.8311 45.6911 90.5717 45.4259C93.3124 45.1606 98.1834 44.7656 100.857 44.5292C103.864 44.2635 105.055 43.8959 107.536 43.2995C109.162 42.9664 111.532 42.5715 113.312 42.368C115.092 42.1646 116.211 42.1646 117.364 42.1646" stroke="#FDF9F3" stroke-width="1.75104" stroke-linecap="round"/>
</svg>
